<mxfile host="app.diagrams.net" modified="2023-02-18T05:27:51.268Z" agent="5.0 (Macintosh; Intel Mac OS X 10_15_7) AppleWebKit/537.36 (KHTML, like Gecko) Chrome/109.0.0.0 Safari/537.36" etag="A6wFmVfPOM24B-Rvb8jK" version="20.8.20" type="github">
  <diagram id="S_Esu84usztgqxPK3PtR" name="Page-1">
    <mxGraphModel dx="968" dy="692" grid="1" gridSize="10" guides="1" tooltips="1" connect="1" arrows="1" fold="1" page="1" pageScale="1" pageWidth="850" pageHeight="1100" math="0" shadow="0">
      <root>
        <mxCell id="0" />
        <mxCell id="1" parent="0" />
        <mxCell id="UvPYXcRRGacLMNcMLabO-1" value="«interface»&lt;br&gt;&lt;b&gt;Stream&lt;/b&gt;" style="html=1;" parent="1" vertex="1">
          <mxGeometry x="423" y="240" width="110" height="50" as="geometry" />
        </mxCell>
        <mxCell id="UvPYXcRRGacLMNcMLabO-3" value="ReferencePipeline" style="swimlane;fontStyle=1;align=center;verticalAlign=top;childLayout=stackLayout;horizontal=1;startSize=26;horizontalStack=0;resizeParent=1;resizeParentMax=0;resizeLast=0;collapsible=1;marginBottom=0;" parent="1" vertex="1">
          <mxGeometry x="398" y="400" width="160" height="86" as="geometry" />
        </mxCell>
        <mxCell id="UvPYXcRRGacLMNcMLabO-4" value="+ field: type" style="text;strokeColor=none;fillColor=none;align=left;verticalAlign=top;spacingLeft=4;spacingRight=4;overflow=hidden;rotatable=0;points=[[0,0.5],[1,0.5]];portConstraint=eastwest;" parent="UvPYXcRRGacLMNcMLabO-3" vertex="1">
          <mxGeometry y="26" width="160" height="26" as="geometry" />
        </mxCell>
        <mxCell id="UvPYXcRRGacLMNcMLabO-5" value="" style="line;strokeWidth=1;fillColor=none;align=left;verticalAlign=middle;spacingTop=-1;spacingLeft=3;spacingRight=3;rotatable=0;labelPosition=right;points=[];portConstraint=eastwest;strokeColor=inherit;" parent="UvPYXcRRGacLMNcMLabO-3" vertex="1">
          <mxGeometry y="52" width="160" height="8" as="geometry" />
        </mxCell>
        <mxCell id="UvPYXcRRGacLMNcMLabO-6" value="+ method(type): type" style="text;strokeColor=none;fillColor=none;align=left;verticalAlign=top;spacingLeft=4;spacingRight=4;overflow=hidden;rotatable=0;points=[[0,0.5],[1,0.5]];portConstraint=eastwest;" parent="UvPYXcRRGacLMNcMLabO-3" vertex="1">
          <mxGeometry y="60" width="160" height="26" as="geometry" />
        </mxCell>
        <mxCell id="UvPYXcRRGacLMNcMLabO-7" value="AbstractPipeline" style="swimlane;fontStyle=1;align=center;verticalAlign=top;childLayout=stackLayout;horizontal=1;startSize=26;horizontalStack=0;resizeParent=1;resizeParentMax=0;resizeLast=0;collapsible=1;marginBottom=0;" parent="1" vertex="1">
          <mxGeometry x="173" y="240" width="160" height="86" as="geometry" />
        </mxCell>
        <mxCell id="UvPYXcRRGacLMNcMLabO-8" value="+ field: type" style="text;strokeColor=none;fillColor=none;align=left;verticalAlign=top;spacingLeft=4;spacingRight=4;overflow=hidden;rotatable=0;points=[[0,0.5],[1,0.5]];portConstraint=eastwest;" parent="UvPYXcRRGacLMNcMLabO-7" vertex="1">
          <mxGeometry y="26" width="160" height="26" as="geometry" />
        </mxCell>
        <mxCell id="UvPYXcRRGacLMNcMLabO-9" value="" style="line;strokeWidth=1;fillColor=none;align=left;verticalAlign=middle;spacingTop=-1;spacingLeft=3;spacingRight=3;rotatable=0;labelPosition=right;points=[];portConstraint=eastwest;strokeColor=inherit;" parent="UvPYXcRRGacLMNcMLabO-7" vertex="1">
          <mxGeometry y="52" width="160" height="8" as="geometry" />
        </mxCell>
        <mxCell id="UvPYXcRRGacLMNcMLabO-10" value="+ method(type): type" style="text;strokeColor=none;fillColor=none;align=left;verticalAlign=top;spacingLeft=4;spacingRight=4;overflow=hidden;rotatable=0;points=[[0,0.5],[1,0.5]];portConstraint=eastwest;" parent="UvPYXcRRGacLMNcMLabO-7" vertex="1">
          <mxGeometry y="60" width="160" height="26" as="geometry" />
        </mxCell>
        <mxCell id="UvPYXcRRGacLMNcMLabO-11" value="Head" style="swimlane;fontStyle=1;align=center;verticalAlign=top;childLayout=stackLayout;horizontal=1;startSize=26;horizontalStack=0;resizeParent=1;resizeParentMax=0;resizeLast=0;collapsible=1;marginBottom=0;" parent="1" vertex="1">
          <mxGeometry x="160" y="558" width="160" height="86" as="geometry" />
        </mxCell>
        <mxCell id="UvPYXcRRGacLMNcMLabO-12" value="+ field: type" style="text;strokeColor=none;fillColor=none;align=left;verticalAlign=top;spacingLeft=4;spacingRight=4;overflow=hidden;rotatable=0;points=[[0,0.5],[1,0.5]];portConstraint=eastwest;" parent="UvPYXcRRGacLMNcMLabO-11" vertex="1">
          <mxGeometry y="26" width="160" height="26" as="geometry" />
        </mxCell>
        <mxCell id="UvPYXcRRGacLMNcMLabO-13" value="" style="line;strokeWidth=1;fillColor=none;align=left;verticalAlign=middle;spacingTop=-1;spacingLeft=3;spacingRight=3;rotatable=0;labelPosition=right;points=[];portConstraint=eastwest;strokeColor=inherit;" parent="UvPYXcRRGacLMNcMLabO-11" vertex="1">
          <mxGeometry y="52" width="160" height="8" as="geometry" />
        </mxCell>
        <mxCell id="UvPYXcRRGacLMNcMLabO-14" value="+ method(type): type" style="text;strokeColor=none;fillColor=none;align=left;verticalAlign=top;spacingLeft=4;spacingRight=4;overflow=hidden;rotatable=0;points=[[0,0.5],[1,0.5]];portConstraint=eastwest;" parent="UvPYXcRRGacLMNcMLabO-11" vertex="1">
          <mxGeometry y="60" width="160" height="26" as="geometry" />
        </mxCell>
        <mxCell id="UvPYXcRRGacLMNcMLabO-15" value="StatefulOp" style="swimlane;fontStyle=1;align=center;verticalAlign=top;childLayout=stackLayout;horizontal=1;startSize=26;horizontalStack=0;resizeParent=1;resizeParentMax=0;resizeLast=0;collapsible=1;marginBottom=0;" parent="1" vertex="1">
          <mxGeometry x="403" y="558" width="160" height="86" as="geometry" />
        </mxCell>
        <mxCell id="UvPYXcRRGacLMNcMLabO-16" value="+ field: type" style="text;strokeColor=none;fillColor=none;align=left;verticalAlign=top;spacingLeft=4;spacingRight=4;overflow=hidden;rotatable=0;points=[[0,0.5],[1,0.5]];portConstraint=eastwest;" parent="UvPYXcRRGacLMNcMLabO-15" vertex="1">
          <mxGeometry y="26" width="160" height="26" as="geometry" />
        </mxCell>
        <mxCell id="UvPYXcRRGacLMNcMLabO-17" value="" style="line;strokeWidth=1;fillColor=none;align=left;verticalAlign=middle;spacingTop=-1;spacingLeft=3;spacingRight=3;rotatable=0;labelPosition=right;points=[];portConstraint=eastwest;strokeColor=inherit;" parent="UvPYXcRRGacLMNcMLabO-15" vertex="1">
          <mxGeometry y="52" width="160" height="8" as="geometry" />
        </mxCell>
        <mxCell id="UvPYXcRRGacLMNcMLabO-18" value="+ method(type): type" style="text;strokeColor=none;fillColor=none;align=left;verticalAlign=top;spacingLeft=4;spacingRight=4;overflow=hidden;rotatable=0;points=[[0,0.5],[1,0.5]];portConstraint=eastwest;" parent="UvPYXcRRGacLMNcMLabO-15" vertex="1">
          <mxGeometry y="60" width="160" height="26" as="geometry" />
        </mxCell>
        <mxCell id="UvPYXcRRGacLMNcMLabO-19" value="StatelessOp" style="swimlane;fontStyle=1;align=center;verticalAlign=top;childLayout=stackLayout;horizontal=1;startSize=26;horizontalStack=0;resizeParent=1;resizeParentMax=0;resizeLast=0;collapsible=1;marginBottom=0;" parent="1" vertex="1">
          <mxGeometry x="640" y="558" width="160" height="86" as="geometry" />
        </mxCell>
        <mxCell id="UvPYXcRRGacLMNcMLabO-20" value="+ field: type" style="text;strokeColor=none;fillColor=none;align=left;verticalAlign=top;spacingLeft=4;spacingRight=4;overflow=hidden;rotatable=0;points=[[0,0.5],[1,0.5]];portConstraint=eastwest;" parent="UvPYXcRRGacLMNcMLabO-19" vertex="1">
          <mxGeometry y="26" width="160" height="26" as="geometry" />
        </mxCell>
        <mxCell id="UvPYXcRRGacLMNcMLabO-21" value="" style="line;strokeWidth=1;fillColor=none;align=left;verticalAlign=middle;spacingTop=-1;spacingLeft=3;spacingRight=3;rotatable=0;labelPosition=right;points=[];portConstraint=eastwest;strokeColor=inherit;" parent="UvPYXcRRGacLMNcMLabO-19" vertex="1">
          <mxGeometry y="52" width="160" height="8" as="geometry" />
        </mxCell>
        <mxCell id="UvPYXcRRGacLMNcMLabO-22" value="+ method(type): type" style="text;strokeColor=none;fillColor=none;align=left;verticalAlign=top;spacingLeft=4;spacingRight=4;overflow=hidden;rotatable=0;points=[[0,0.5],[1,0.5]];portConstraint=eastwest;" parent="UvPYXcRRGacLMNcMLabO-19" vertex="1">
          <mxGeometry y="60" width="160" height="26" as="geometry" />
        </mxCell>
        <mxCell id="UvPYXcRRGacLMNcMLabO-23" value="" style="endArrow=block;dashed=1;endFill=0;endSize=12;html=1;rounded=0;entryX=0.5;entryY=1;entryDx=0;entryDy=0;exitX=0.5;exitY=0;exitDx=0;exitDy=0;" parent="1" source="UvPYXcRRGacLMNcMLabO-3" target="UvPYXcRRGacLMNcMLabO-1" edge="1">
          <mxGeometry width="160" relative="1" as="geometry">
            <mxPoint x="303" y="500" as="sourcePoint" />
            <mxPoint x="463" y="500" as="targetPoint" />
          </mxGeometry>
        </mxCell>
        <mxCell id="UvPYXcRRGacLMNcMLabO-24" value="«interface»&lt;br&gt;&lt;b&gt;BaseStream&lt;/b&gt;" style="html=1;" parent="1" vertex="1">
          <mxGeometry x="423" y="100" width="110" height="50" as="geometry" />
        </mxCell>
        <mxCell id="UvPYXcRRGacLMNcMLabO-25" value="" style="endArrow=block;dashed=1;endFill=0;endSize=12;html=1;rounded=0;entryX=0.5;entryY=1;entryDx=0;entryDy=0;exitX=0.5;exitY=0;exitDx=0;exitDy=0;" parent="1" source="UvPYXcRRGacLMNcMLabO-1" target="UvPYXcRRGacLMNcMLabO-24" edge="1">
          <mxGeometry width="160" relative="1" as="geometry">
            <mxPoint x="303" y="340" as="sourcePoint" />
            <mxPoint x="463" y="340" as="targetPoint" />
          </mxGeometry>
        </mxCell>
        <mxCell id="UvPYXcRRGacLMNcMLabO-26" value="" style="endArrow=block;endFill=0;endSize=12;html=1;rounded=0;exitX=0.5;exitY=0;exitDx=0;exitDy=0;entryX=0.481;entryY=1.115;entryDx=0;entryDy=0;entryPerimeter=0;" parent="1" source="UvPYXcRRGacLMNcMLabO-3" target="UvPYXcRRGacLMNcMLabO-10" edge="1">
          <mxGeometry width="160" relative="1" as="geometry">
            <mxPoint x="303" y="340" as="sourcePoint" />
            <mxPoint x="253" y="390" as="targetPoint" />
            <Array as="points">
              <mxPoint x="478" y="380" />
              <mxPoint x="250" y="380" />
            </Array>
          </mxGeometry>
        </mxCell>
        <mxCell id="UvPYXcRRGacLMNcMLabO-27" value="" style="endArrow=block;endFill=0;endSize=12;html=1;rounded=0;exitX=0.5;exitY=0;exitDx=0;exitDy=0;" parent="1" source="UvPYXcRRGacLMNcMLabO-11" target="UvPYXcRRGacLMNcMLabO-3" edge="1">
          <mxGeometry width="160" relative="1" as="geometry">
            <mxPoint x="488" y="410" as="sourcePoint" />
            <mxPoint x="463" y="500" as="targetPoint" />
            <Array as="points">
              <mxPoint x="240" y="530" />
              <mxPoint x="478" y="530" />
            </Array>
          </mxGeometry>
        </mxCell>
        <mxCell id="UvPYXcRRGacLMNcMLabO-30" value="" style="endArrow=block;endFill=0;endSize=12;html=1;rounded=0;exitX=0.47;exitY=-0.006;exitDx=0;exitDy=0;exitPerimeter=0;" parent="1" source="UvPYXcRRGacLMNcMLabO-15" target="UvPYXcRRGacLMNcMLabO-3" edge="1">
          <mxGeometry width="160" relative="1" as="geometry">
            <mxPoint x="463" y="480" as="sourcePoint" />
            <mxPoint x="623" y="480" as="targetPoint" />
          </mxGeometry>
        </mxCell>
        <mxCell id="UvPYXcRRGacLMNcMLabO-31" value="" style="endArrow=block;endFill=0;endSize=12;html=1;rounded=0;exitX=0.477;exitY=0;exitDx=0;exitDy=0;exitPerimeter=0;" parent="1" source="UvPYXcRRGacLMNcMLabO-19" target="UvPYXcRRGacLMNcMLabO-3" edge="1">
          <mxGeometry width="160" relative="1" as="geometry">
            <mxPoint x="463" y="480" as="sourcePoint" />
            <mxPoint x="623" y="480" as="targetPoint" />
            <Array as="points">
              <mxPoint x="716" y="530" />
              <mxPoint x="478" y="530" />
            </Array>
          </mxGeometry>
        </mxCell>
        <mxCell id="UWMmX6l8Gy4ivn46XDV2-1" value="«interface»&lt;br&gt;&lt;b&gt;Consumer&lt;/b&gt;" style="html=1;" vertex="1" parent="1">
          <mxGeometry x="320" y="880" width="110" height="50" as="geometry" />
        </mxCell>
        <mxCell id="UWMmX6l8Gy4ivn46XDV2-2" value="«interface»&lt;br&gt;&lt;b&gt;Sink&lt;/b&gt;" style="html=1;" vertex="1" parent="1">
          <mxGeometry x="320" y="1000" width="110" height="50" as="geometry" />
        </mxCell>
        <mxCell id="UWMmX6l8Gy4ivn46XDV2-3" value="ChainedReference" style="swimlane;fontStyle=1;align=center;verticalAlign=top;childLayout=stackLayout;horizontal=1;startSize=26;horizontalStack=0;resizeParent=1;resizeParentMax=0;resizeLast=0;collapsible=1;marginBottom=0;" vertex="1" parent="1">
          <mxGeometry x="295" y="1120" width="160" height="86" as="geometry" />
        </mxCell>
        <mxCell id="UWMmX6l8Gy4ivn46XDV2-4" value="+ field: type" style="text;strokeColor=none;fillColor=none;align=left;verticalAlign=top;spacingLeft=4;spacingRight=4;overflow=hidden;rotatable=0;points=[[0,0.5],[1,0.5]];portConstraint=eastwest;" vertex="1" parent="UWMmX6l8Gy4ivn46XDV2-3">
          <mxGeometry y="26" width="160" height="26" as="geometry" />
        </mxCell>
        <mxCell id="UWMmX6l8Gy4ivn46XDV2-5" value="" style="line;strokeWidth=1;fillColor=none;align=left;verticalAlign=middle;spacingTop=-1;spacingLeft=3;spacingRight=3;rotatable=0;labelPosition=right;points=[];portConstraint=eastwest;strokeColor=inherit;" vertex="1" parent="UWMmX6l8Gy4ivn46XDV2-3">
          <mxGeometry y="52" width="160" height="8" as="geometry" />
        </mxCell>
        <mxCell id="UWMmX6l8Gy4ivn46XDV2-6" value="+ method(type): type" style="text;strokeColor=none;fillColor=none;align=left;verticalAlign=top;spacingLeft=4;spacingRight=4;overflow=hidden;rotatable=0;points=[[0,0.5],[1,0.5]];portConstraint=eastwest;" vertex="1" parent="UWMmX6l8Gy4ivn46XDV2-3">
          <mxGeometry y="60" width="160" height="26" as="geometry" />
        </mxCell>
        <mxCell id="UWMmX6l8Gy4ivn46XDV2-7" value="PipelineHelper" style="swimlane;fontStyle=1;align=center;verticalAlign=top;childLayout=stackLayout;horizontal=1;startSize=26;horizontalStack=0;resizeParent=1;resizeParentMax=0;resizeLast=0;collapsible=1;marginBottom=0;" vertex="1" parent="1">
          <mxGeometry x="173" y="100" width="160" height="86" as="geometry" />
        </mxCell>
        <mxCell id="UWMmX6l8Gy4ivn46XDV2-8" value="+ field: type" style="text;strokeColor=none;fillColor=none;align=left;verticalAlign=top;spacingLeft=4;spacingRight=4;overflow=hidden;rotatable=0;points=[[0,0.5],[1,0.5]];portConstraint=eastwest;" vertex="1" parent="UWMmX6l8Gy4ivn46XDV2-7">
          <mxGeometry y="26" width="160" height="26" as="geometry" />
        </mxCell>
        <mxCell id="UWMmX6l8Gy4ivn46XDV2-9" value="" style="line;strokeWidth=1;fillColor=none;align=left;verticalAlign=middle;spacingTop=-1;spacingLeft=3;spacingRight=3;rotatable=0;labelPosition=right;points=[];portConstraint=eastwest;strokeColor=inherit;" vertex="1" parent="UWMmX6l8Gy4ivn46XDV2-7">
          <mxGeometry y="52" width="160" height="8" as="geometry" />
        </mxCell>
        <mxCell id="UWMmX6l8Gy4ivn46XDV2-10" value="+ method(type): type" style="text;strokeColor=none;fillColor=none;align=left;verticalAlign=top;spacingLeft=4;spacingRight=4;overflow=hidden;rotatable=0;points=[[0,0.5],[1,0.5]];portConstraint=eastwest;" vertex="1" parent="UWMmX6l8Gy4ivn46XDV2-7">
          <mxGeometry y="60" width="160" height="26" as="geometry" />
        </mxCell>
        <mxCell id="UWMmX6l8Gy4ivn46XDV2-11" value="" style="endArrow=block;endFill=0;endSize=12;html=1;rounded=0;exitX=0.5;exitY=0;exitDx=0;exitDy=0;" edge="1" parent="1" source="UvPYXcRRGacLMNcMLabO-7" target="UWMmX6l8Gy4ivn46XDV2-7">
          <mxGeometry width="160" relative="1" as="geometry">
            <mxPoint x="340" y="360" as="sourcePoint" />
            <mxPoint x="500" y="360" as="targetPoint" />
          </mxGeometry>
        </mxCell>
      </root>
    </mxGraphModel>
  </diagram>
</mxfile>
